<?xml version="1.0" encoding="utf-8"?>
<!-- Generator: Adobe Illustrator 16.0.0, SVG Export Plug-In . SVG Version: 6.00 Build 0)  -->
<!DOCTYPE svg PUBLIC "-//W3C//DTD SVG 1.1//EN" "http://www.w3.org/Graphics/SVG/1.1/DTD/svg11.dtd">
<svg version="1.1" id="Default" xmlns="http://www.w3.org/2000/svg" xmlns:xlink="http://www.w3.org/1999/xlink" x="0px" y="0px"
	 width="60px" height="40px" viewBox="0 0 60 40" enable-background="new 0 0 60 40" xml:space="preserve">
<rect x="0.325" y="10.969" width="59.351" height="25.805"/>
<polygon fill="#8C8C8C" stroke="#8C8C8C" stroke-width="0.05" stroke-linecap="round" stroke-linejoin="round" points="
	168.063,20.588 165.521,20.588 165.521,28.214 150.269,28.214 150.269,20.588 145.185,20.588 145.185,25.672 142.642,25.672 
	142.642,18.046 150.269,18.046 150.269,12.962 165.521,12.962 165.521,18.046 168.063,18.046 168.063,12.962 183.315,12.962 
	183.315,28.214 168.063,28.214 "/>
<rect x="170.605" y="15.504" fill="#FFFFFF" stroke="#8C8C8C" stroke-width="0.05" stroke-linecap="round" stroke-linejoin="round" width="10.168" height="10.168"/>
<rect x="152.811" y="15.504" fill="#FFFFFF" stroke="#8C8C8C" stroke-width="0.05" stroke-linecap="round" stroke-linejoin="round" width="10.168" height="10.168"/>
<rect x="152.811" y="18.617" fill="#8C8C8C" stroke="#8C8C8C" stroke-width="0.05" stroke-linecap="round" stroke-linejoin="round" width="5.084" height="7.056"/>
<line fill="none" stroke="#8C8C8C" stroke-linecap="round" stroke-linejoin="round" x1="150.269" y1="8.42" x2="180.773" y2="8.42"/>
<rect x="165.521" y="32.299" fill="#8C8C8C" width="2.542" height="2.542"/>
<polyline fill="none" stroke="#8C8C8C" stroke-linecap="round" stroke-linejoin="round" points="180.773,8.42 185.858,8.42 
	185.858,38.925 145.185,38.925 145.185,8.42 150.269,8.42 "/>
<polygon fill="none" stroke="#8C8C8C" stroke-width="1.5" stroke-linecap="round" stroke-linejoin="round" points="180.773,-0.58 
	180.773,-10.748 178.231,-10.748 178.231,-13.291 175.689,-13.291 175.689,-15.833 155.353,-15.833 155.353,-13.291 
	152.811,-13.291 152.811,-10.748 150.269,-10.748 150.269,-0.58 155.353,-0.58 155.353,-3.122 155.353,-8.206 157.895,-8.206 
	157.895,-10.748 170.605,-10.748 173.147,-10.748 173.147,-8.206 175.689,-8.206 175.689,-0.58 "/>
<rect x="44.192" y="3.227" fill="none" stroke="#000000" stroke-linecap="round" stroke-linejoin="round" width="10.322" height="5.161"/>
<rect x="33.871" y="3.227" stroke="#000000" stroke-width="0.25" stroke-linecap="round" stroke-linejoin="round" width="7.741" height="5.161"/>
<rect x="20.968" y="5.808" fill="none" stroke="#000000" stroke-linecap="round" stroke-linejoin="round" width="5.161" height="2.58"/>
<rect x="23.548" y="31.612" fill="#FFFFFF" stroke="#000000" stroke-width="0.25" stroke-linecap="round" stroke-linejoin="round" width="12.903" height="2.581"/>
<polygon fill="#FF0000" stroke="#000000" stroke-width="0.05" stroke-linecap="round" stroke-linejoin="round" points="
	31.291,21.291 28.709,21.291 28.709,29.032 13.227,29.032 13.227,21.291 8.066,21.291 8.066,26.452 5.486,26.452 5.486,18.71 
	13.227,18.71 13.227,13.549 28.709,13.549 28.709,18.71 31.291,18.71 31.291,13.549 46.773,13.549 46.773,29.032 31.291,29.032 "/>
<rect x="33.871" y="16.13" fill="#FFFFFF" width="5.161" height="10.322"/>
<rect x="15.808" y="16.13" fill="#FFFFFF" width="5.16" height="10.322"/>
<polygon fill="none" stroke="#000000" stroke-linecap="round" stroke-linejoin="round" points="0.325,39.354 0.325,3.227 
	8.066,3.227 13.227,3.227 15.808,3.227 20.968,3.227 23.548,3.227 23.548,0.646 28.709,0.646 59.675,0.646 59.675,39.354 "/>
<polygon stroke="#000000" stroke-width="0.05" stroke-linecap="round" stroke-linejoin="round" points="-46.467,58.853 
	-49.009,58.853 -49.009,66.479 -64.261,66.479 -64.261,58.853 -69.345,58.853 -69.345,63.937 -71.888,63.937 -71.888,56.311 
	-64.261,56.311 -64.261,51.227 -49.009,51.227 -49.009,56.311 -46.467,56.311 -46.467,51.227 -31.214,51.227 -31.214,66.479 
	-46.467,66.479 "/>
<rect x="-38.84" y="53.769" fill="none" stroke="#000000" stroke-width="0.05" stroke-linecap="round" stroke-linejoin="round" width="5.084" height="10.168"/>
<rect x="-43.925" y="53.769" fill="#FFFFFF" stroke="#000000" stroke-width="0.05" stroke-linecap="round" stroke-linejoin="round" width="5.084" height="10.168"/>
<rect x="-56.635" y="53.769" fill="none" stroke="#000000" stroke-width="0.05" stroke-linecap="round" stroke-linejoin="round" width="5.084" height="10.168"/>
<rect x="-61.719" y="53.769" fill="#FFFFFF" stroke="#000000" stroke-width="0.05" stroke-linecap="round" stroke-linejoin="round" width="5.084" height="10.168"/>
<rect x="39.032" y="16.13" stroke="#000000" stroke-width="0.005" stroke-linecap="round" stroke-linejoin="round" width="5.161" height="10.322"/>
<rect x="20.968" y="16.13" stroke="#000000" stroke-width="0.005" stroke-linecap="round" stroke-linejoin="round" width="5.161" height="10.322"/>
<polygon stroke="#000000" stroke-width="0.05" stroke-linecap="round" stroke-linejoin="round" points="114.313,20.588 
	111.771,20.588 111.771,28.214 96.519,28.214 96.519,20.588 91.435,20.588 91.435,25.672 88.892,25.672 88.892,18.046 
	96.519,18.046 96.519,12.962 111.771,12.962 111.771,18.046 114.313,18.046 114.313,12.962 129.565,12.962 129.565,28.214 
	114.313,28.214 "/>
<rect x="121.939" y="15.504" fill="none" stroke="#000000" stroke-width="0.05" stroke-linecap="round" stroke-linejoin="round" width="5.084" height="10.168"/>
<rect x="116.855" y="15.504" fill="#FFFFFF" stroke="#000000" stroke-width="0.05" stroke-linecap="round" stroke-linejoin="round" width="5.084" height="10.168"/>
<rect x="104.145" y="15.504" fill="none" stroke="#000000" stroke-width="0.05" stroke-linecap="round" stroke-linejoin="round" width="5.084" height="10.168"/>
<rect x="99.061" y="15.504" fill="#FFFFFF" stroke="#000000" stroke-width="0.05" stroke-linecap="round" stroke-linejoin="round" width="5.084" height="10.168"/>
<polygon fill="none" stroke="#000000" stroke-linecap="round" stroke-linejoin="round" points="101.603,8.42 121.939,8.42 
	121.939,0.794 119.397,0.794 119.397,-1.748 116.855,-1.748 104.145,-1.748 104.145,0.794 101.603,0.794 101.603,5.878 "/>
<rect x="109.229" y="31.299" stroke="#000000" stroke-width="0.25" stroke-linecap="round" stroke-linejoin="round" width="5.084" height="5.084"/>
<polygon fill="none" stroke="#000000" stroke-width="1.5" stroke-linecap="round" stroke-linejoin="round" points="91.435,38.925 
	91.435,8.42 96.519,8.42 96.519,-1.748 99.061,-1.748 99.061,-4.291 101.603,-4.291 101.603,-6.833 121.939,-6.833 121.939,-4.291 
	124.481,-4.291 124.481,-1.748 127.023,-1.748 127.023,8.42 132.108,8.42 132.108,38.925 "/>
<rect x="170.605" y="18.617" fill="#8C8C8C" stroke="#8C8C8C" stroke-width="0.05" stroke-linecap="round" stroke-linejoin="round" width="5.084" height="7.056"/>
</svg>
