<?xml version="1.0" encoding="utf-8"?>
<!-- Generator: Adobe Illustrator 16.0.0, SVG Export Plug-In . SVG Version: 6.00 Build 0)  -->
<!DOCTYPE svg PUBLIC "-//W3C//DTD SVG 1.1//EN" "http://www.w3.org/Graphics/SVG/1.1/DTD/svg11.dtd">
<svg version="1.1" id="Default" xmlns="http://www.w3.org/2000/svg" xmlns:xlink="http://www.w3.org/1999/xlink" x="0px" y="0px"
	 width="60.25px" height="39.815px" viewBox="0 0 60.25 39.815" enable-background="new 0 0 60.25 39.815" xml:space="preserve">
<rect x="1.016" y="11.103" fill="#212121" stroke="#000000" stroke-linecap="round" stroke-linejoin="round" width="58.468" height="27.029"/>
<polygon fill="#878787" points="84.986,20.337 82.444,20.337 82.444,27.963 67.192,27.963 67.192,20.337 67.192,17.794 
	67.192,12.71 82.444,12.71 82.444,17.794 84.986,17.794 84.986,12.71 100.239,12.71 100.239,27.963 84.986,27.963 "/>
<polygon fill="none" stroke="#000000" stroke-width="2" stroke-linecap="round" stroke-linejoin="round" points="1.016,39.065 
	1.016,3.476 8.643,3.476 13.727,3.476 16.269,3.476 21.353,3.476 23.895,3.476 26.437,0.934 28.979,0.934 59.484,0.934 
	59.484,39.065 "/>
<polygon fill="#FF0000" points="31.521,21.271 28.979,21.271 28.979,28.897 13.727,28.897 13.727,21.271 13.727,18.729 
	13.727,13.645 28.979,13.645 28.979,18.729 31.521,18.729 31.521,13.645 46.774,13.645 46.774,28.897 31.521,28.897 "/>
<rect x="23.895" y="31.439" fill="#B7B7B7" width="12.71" height="2.542"/>
<rect x="44.231" y="3.476" fill="none" stroke="#000000" stroke-linecap="round" stroke-linejoin="round" width="10.168" height="5.084"/>
<rect x="34.063" y="3.476" fill="#545454" stroke="#000000" stroke-linecap="round" stroke-linejoin="round" width="7.626" height="5.084"/>
<rect x="39.147" y="16.187" fill="#212121" width="5.084" height="10.168"/>
<rect x="34.063" y="16.187" fill="#FFFFFF" width="5.084" height="10.168"/>
<rect x="21.353" y="16.187" fill="#212121" width="5.084" height="10.168"/>
<rect x="16.269" y="16.187" fill="#FFFFFF" width="5.084" height="10.168"/>
<polygon fill="none" stroke="#000000" stroke-width="2" stroke-linecap="round" stroke-linejoin="round" points="112.949,7.626 
	143.454,7.626 148.538,7.626 148.538,38.131 107.865,38.131 107.865,7.626 "/>
<polygon fill="none" stroke="#000000" stroke-width="2" stroke-linecap="round" stroke-linejoin="round" points="120.312,-5.435 
	115.684,-7.539 119.891,-16.796 123.257,-18.058 126.624,-19.32 145.137,-10.905 146.399,-7.539 147.662,-4.173 143.454,5.084 
	138.826,2.98 141.981,-3.962 141.981,-3.962 140.719,-7.328 138.405,-8.38 126.834,-13.64 126.834,-13.64 123.468,-12.377 
	121.364,-7.749 "/>
<polygon fill="none" stroke="#000000" stroke-width="2" stroke-linecap="round" stroke-linejoin="round" points="72.276,7.626 
	67.192,7.626 67.192,-2.542 69.734,-5.084 72.276,-7.626 92.612,-7.626 95.155,-5.084 97.697,-2.542 97.697,7.626 92.612,7.626 
	92.612,0 92.612,0 90.07,-2.542 87.528,-2.542 74.818,-2.542 74.818,-2.542 72.276,0 72.276,5.084 "/>
<polygon fill="none" stroke="#000000" stroke-width="2" stroke-linecap="round" stroke-linejoin="round" points="97.697,7.626 
	102.781,7.626 102.781,38.131 62.107,38.131 62.107,7.626 "/>
<polygon fill="#878787" points="130.744,20.337 128.202,20.337 128.202,27.963 112.949,27.963 112.949,20.337 112.949,17.794 
	112.949,12.71 128.202,12.71 128.202,17.794 130.744,17.794 130.744,12.71 145.996,12.71 145.996,27.963 130.744,27.963 "/>
<rect x="115.491" y="15.252" fill="#212121" width="5.084" height="10.168"/>
<rect x="120.575" y="15.252" fill="#FFFFFF" width="5.084" height="10.168"/>
<rect x="133.286" y="15.252" fill="#212121" width="5.084" height="10.168"/>
<rect x="138.37" y="15.252" fill="#FFFFFF" width="5.084" height="10.168"/>
<rect x="125.66" y="30.505" fill="#212121" width="5.084" height="5.084"/>
<rect x="82.444" y="30.505" fill="#212121" width="2.542" height="2.542"/>
<rect x="69.734" y="15.252" fill="#FFFFFF" width="5.084" height="10.168"/>
<rect x="74.818" y="15.252" fill="#212121" width="5.084" height="10.168"/>
<rect x="87.528" y="15.252" fill="#FFFFFF" width="5.084" height="10.168"/>
<rect x="92.612" y="15.252" fill="#212121" width="5.084" height="10.168"/>
</svg>
