<?xml version="1.0" encoding="utf-8"?>
<!-- Generator: Adobe Illustrator 16.0.0, SVG Export Plug-In . SVG Version: 6.00 Build 0)  -->
<!DOCTYPE svg PUBLIC "-//W3C//DTD SVG 1.1//EN" "http://www.w3.org/Graphics/SVG/1.1/DTD/svg11.dtd">
<svg version="1.1" id="Default" xmlns="http://www.w3.org/2000/svg" xmlns:xlink="http://www.w3.org/1999/xlink" x="0px" y="0px"
	 width="44px" height="49.583px" viewBox="0 0 44 49.583" enable-background="new 0 0 44 49.583" xml:space="preserve">
<polygon fill="#A8A8A8" stroke="#000000" stroke-width="2" stroke-linecap="round" stroke-linejoin="round" points="37.252,17.395 
	42.336,17.395 42.336,47.899 1.663,47.899 1.663,17.395 "/>
<rect x="-74.233" y="20.871" fill="#212121" stroke="#000000" stroke-linecap="round" stroke-linejoin="round" width="58.468" height="27.029"/>
<polygon fill="#383838" points="24.542,30.105 22,30.105 22,37.731 6.748,37.731 6.748,30.105 6.748,27.563 6.748,22.479 22,22.479 
	22,27.563 24.542,27.563 24.542,22.479 39.794,22.479 39.794,37.731 24.542,37.731 "/>
<polygon fill="none" stroke="#000000" stroke-width="2" stroke-linecap="round" stroke-linejoin="round" points="-74.233,48.833 
	-74.233,13.244 -66.607,13.244 -61.523,13.244 -58.981,13.244 -53.896,13.244 -51.354,13.244 -48.813,10.702 -46.271,10.702 
	-15.766,10.702 -15.766,48.833 "/>
<polygon fill="#FF0000" points="-43.729,31.039 -46.271,31.039 -46.271,38.665 -61.523,38.665 -61.523,31.039 -61.523,28.497 
	-61.523,23.413 -46.271,23.413 -46.271,28.497 -43.729,28.497 -43.729,23.413 -28.476,23.413 -28.476,38.665 -43.729,38.665 "/>
<rect x="-51.354" y="41.207" fill="#B7B7B7" width="12.71" height="2.542"/>
<rect x="-31.018" y="13.244" fill="none" stroke="#000000" stroke-linecap="round" stroke-linejoin="round" width="10.168" height="5.084"/>
<rect x="-41.186" y="13.244" fill="#545454" stroke="#000000" stroke-linecap="round" stroke-linejoin="round" width="7.626" height="5.084"/>
<rect x="-36.102" y="25.955" fill="#212121" width="5.084" height="10.168"/>
<rect x="-41.186" y="25.955" fill="#FFFFFF" width="5.084" height="10.168"/>
<rect x="-53.896" y="25.955" fill="#212121" width="5.084" height="10.168"/>
<rect x="-58.981" y="25.955" fill="#FFFFFF" width="5.084" height="10.168"/>
<polygon fill="none" stroke="#515151" stroke-width="2" stroke-linecap="round" stroke-linejoin="round" points="102.914,17.395 
	133.419,17.395 138.503,17.395 138.503,47.899 97.83,47.899 97.83,17.395 "/>
<polygon fill="none" stroke="#515151" stroke-width="2" stroke-linecap="round" stroke-linejoin="round" points="110.277,4.333 
	105.648,2.229 109.856,-7.028 113.222,-8.29 116.588,-9.552 135.102,-1.137 136.364,2.229 137.626,5.595 133.419,14.852 
	128.791,12.749 131.946,5.806 131.946,5.806 130.684,2.44 128.37,1.388 116.799,-3.872 116.799,-3.872 113.433,-2.609 
	111.329,2.019 "/>
<polygon fill="#4F4F4F" stroke="#000000" stroke-width="2" stroke-linecap="round" stroke-linejoin="round" points="11.832,17.395 
	6.748,17.395 6.748,7.226 9.29,4.684 11.832,2.142 32.168,2.142 34.71,4.684 37.252,7.226 37.252,17.395 32.168,17.395 
	32.168,9.768 32.168,9.768 29.626,7.226 27.084,7.226 14.374,7.226 14.374,7.226 11.832,9.768 11.832,14.852 "/>
<polygon fill="#878787" points="120.708,30.105 118.167,30.105 118.167,37.731 102.914,37.731 102.914,30.105 102.914,27.563 
	102.914,22.479 118.167,22.479 118.167,27.563 120.708,27.563 120.708,22.479 135.961,22.479 135.961,37.731 120.708,37.731 "/>
<rect x="105.456" y="25.021" fill="#212121" width="5.084" height="10.168"/>
<rect x="110.54" y="25.021" fill="#FFFFFF" width="5.084" height="10.168"/>
<rect x="123.25" y="25.021" fill="#212121" width="5.084" height="10.168"/>
<rect x="128.335" y="25.021" fill="#FFFFFF" width="5.084" height="10.168"/>
<rect x="115.625" y="40.273" fill="#212121" width="5.084" height="5.084"/>
<rect x="22" y="40.273" fill="#212121" width="2.542" height="2.542"/>
<rect x="9.29" y="25.021" fill="#FFFFFF" width="5.084" height="10.168"/>
<rect x="14.374" y="25.021" fill="#212121" width="5.084" height="10.168"/>
<rect x="27.084" y="25.021" fill="#FFFFFF" width="5.084" height="10.168"/>
<rect x="32.168" y="25.021" fill="#212121" width="5.084" height="10.168"/>
</svg>
