<?xml version="1.0" encoding="utf-8"?>
<!-- Generator: Adobe Illustrator 16.0.0, SVG Export Plug-In . SVG Version: 6.00 Build 0)  -->
<!DOCTYPE svg PUBLIC "-//W3C//DTD SVG 1.1//EN" "http://www.w3.org/Graphics/SVG/1.1/DTD/svg11.dtd">
<svg version="1.1" id="Default" xmlns="http://www.w3.org/2000/svg" xmlns:xlink="http://www.w3.org/1999/xlink" x="0px" y="0px"
	 width="44px" height="49.5px" viewBox="0 0 44 49.5" enable-background="new 0 0 44 49.5" xml:space="preserve">
<polygon fill="#A8A8A8" stroke="#000000" stroke-width="2" stroke-linecap="round" stroke-linejoin="round" points="37.252,17.311 
	42.336,17.311 42.336,47.816 1.663,47.816 1.663,17.311 "/>
<rect x="-74.233" y="20.787" fill="#212121" stroke="#000000" stroke-linecap="round" stroke-linejoin="round" width="58.468" height="27.029"/>
<polygon fill="#383838" points="23.542,30.021 21,30.021 21,37.647 5.748,37.647 5.748,30.021 5.748,27.479 5.748,22.395 21,22.395 
	21,27.479 23.542,27.479 23.542,22.395 38.794,22.395 38.794,37.647 23.542,37.647 "/>
<polygon fill="none" stroke="#000000" stroke-width="2" stroke-linecap="round" stroke-linejoin="round" points="-74.233,48.75 
	-74.233,13.161 -66.607,13.161 -61.523,13.161 -58.981,13.161 -53.896,13.161 -51.354,13.161 -48.813,10.619 -46.271,10.619 
	-15.766,10.619 -15.766,48.75 "/>
<polygon points="-43.729,30.956 -46.271,30.956 -46.271,38.582 -61.523,38.582 -61.523,30.956 -61.523,28.413 -61.523,23.329 
	-46.271,23.329 -46.271,28.413 -43.729,28.413 -43.729,23.329 -28.476,23.329 -28.476,38.582 -43.729,38.582 "/>
<rect x="-51.354" y="41.124" fill="#B7B7B7" width="12.71" height="2.542"/>
<rect x="-31.018" y="13.161" fill="none" stroke="#000000" stroke-linecap="round" stroke-linejoin="round" width="10.168" height="5.084"/>
<rect x="-41.186" y="13.161" fill="#545454" stroke="#000000" stroke-linecap="round" stroke-linejoin="round" width="7.626" height="5.084"/>
<rect x="-36.102" y="25.871" fill="#212121" width="5.084" height="10.168"/>
<rect x="-41.186" y="25.871" fill="#FFFFFF" width="5.084" height="10.168"/>
<rect x="-53.896" y="25.871" fill="#212121" width="5.084" height="10.168"/>
<rect x="-58.981" y="25.871" fill="#FFFFFF" width="5.084" height="10.168"/>
<polygon fill="none" stroke="#515151" stroke-width="2" stroke-linecap="round" stroke-linejoin="round" points="110.123,17.311 
	140.627,17.311 145.711,17.311 145.711,47.816 105.039,47.816 105.039,17.311 "/>
<polygon fill="none" stroke="#515151" stroke-width="2" stroke-linecap="round" stroke-linejoin="round" points="117.485,4.25 
	112.857,2.146 117.064,-7.111 120.431,-8.374 123.797,-9.636 142.311,-1.22 143.573,2.146 144.835,5.512 140.627,14.769 
	135.999,12.665 139.155,5.722 139.155,5.722 137.893,2.356 135.578,1.304 124.007,-3.955 124.007,-3.955 120.641,-2.693 
	118.537,1.936 "/>
<polygon fill="#4F4F4F" stroke="#000000" stroke-width="2" stroke-linecap="round" stroke-linejoin="round" points="11.832,17.311 
	6.748,17.311 6.748,7.143 9.29,4.601 11.832,2.059 32.168,2.059 34.71,4.601 37.252,7.143 37.252,17.311 32.168,17.311 
	32.168,9.685 32.168,9.685 29.626,7.143 27.084,7.143 14.374,7.143 14.374,7.143 11.832,9.685 11.832,14.769 "/>
<rect x="8.29" y="24.937" fill="#FFFFFF" width="5.084" height="10.168"/>
<rect x="13.374" y="24.937" fill="#212121" width="5.084" height="10.168"/>
<rect x="26.084" y="24.937" fill="#FFFFFF" width="5.084" height="10.168"/>
<rect x="31.168" y="24.937" fill="#212121" width="5.084" height="10.168"/>
</svg>
