<?xml version="1.0" encoding="utf-8"?>
<!-- Generator: Adobe Illustrator 16.0.0, SVG Export Plug-In . SVG Version: 6.00 Build 0)  -->
<!DOCTYPE svg PUBLIC "-//W3C//DTD SVG 1.1//EN" "http://www.w3.org/Graphics/SVG/1.1/DTD/svg11.dtd">
<svg version="1.1" id="Default" xmlns="http://www.w3.org/2000/svg" xmlns:xlink="http://www.w3.org/1999/xlink" x="0px" y="0px"
	 width="50px" height="50px" viewBox="0 0 50 50" enable-background="new 0 0 50 50" xml:space="preserve">
<rect x="-80.425" y="15.969" width="59.351" height="25.805"/>
<polygon fill="#8C8C8C" stroke="#8C8C8C" stroke-width="0.05" stroke-linecap="round" stroke-linejoin="round" points="
	163.063,25.588 160.521,25.588 160.521,33.214 145.269,33.214 145.269,25.588 140.185,25.588 140.185,30.672 137.642,30.672 
	137.642,23.046 145.269,23.046 145.269,17.962 160.521,17.962 160.521,23.046 163.063,23.046 163.063,17.962 178.315,17.962 
	178.315,33.214 163.063,33.214 "/>
<rect x="165.605" y="20.504" fill="#FFFFFF" stroke="#8C8C8C" stroke-width="0.05" stroke-linecap="round" stroke-linejoin="round" width="10.168" height="10.168"/>
<rect x="147.811" y="20.504" fill="#FFFFFF" stroke="#8C8C8C" stroke-width="0.05" stroke-linecap="round" stroke-linejoin="round" width="10.168" height="10.168"/>
<rect x="147.811" y="23.617" fill="#8C8C8C" stroke="#8C8C8C" stroke-width="0.05" stroke-linecap="round" stroke-linejoin="round" width="5.084" height="7.056"/>
<line fill="none" stroke="#8C8C8C" stroke-linecap="round" stroke-linejoin="round" x1="145.269" y1="13.42" x2="175.773" y2="13.42"/>
<rect x="160.521" y="37.299" fill="#8C8C8C" width="2.542" height="2.542"/>
<polyline fill="none" stroke="#8C8C8C" stroke-linecap="round" stroke-linejoin="round" points="175.773,13.42 180.858,13.42 
	180.858,43.925 140.185,43.925 140.185,13.42 145.269,13.42 "/>
<polygon fill="none" stroke="#8C8C8C" stroke-width="1.5" stroke-linecap="round" stroke-linejoin="round" points="175.773,4.42 
	175.773,-5.748 173.231,-5.748 173.231,-8.291 170.689,-8.291 170.689,-10.833 150.353,-10.833 150.353,-8.291 147.811,-8.291 
	147.811,-5.748 145.269,-5.748 145.269,4.42 150.353,4.42 150.353,1.878 150.353,-3.206 152.895,-3.206 152.895,-5.748 
	165.605,-5.748 168.147,-5.748 168.147,-3.206 170.689,-3.206 170.689,4.42 "/>
<rect x="-36.558" y="8.227" fill="none" stroke="#000000" stroke-linecap="round" stroke-linejoin="round" width="10.322" height="5.161"/>
<rect x="-46.879" y="8.227" stroke="#000000" stroke-width="0.25" stroke-linecap="round" stroke-linejoin="round" width="7.741" height="5.161"/>
<rect x="-59.782" y="10.808" fill="none" stroke="#000000" stroke-linecap="round" stroke-linejoin="round" width="5.161" height="2.58"/>
<rect x="-57.202" y="36.612" fill="#FFFFFF" stroke="#000000" stroke-width="0.25" stroke-linecap="round" stroke-linejoin="round" width="12.903" height="2.581"/>
<polygon fill="#FF0000" stroke="#000000" stroke-width="0.05" stroke-linecap="round" stroke-linejoin="round" points="
	-49.459,26.291 -52.041,26.291 -52.041,34.032 -67.523,34.032 -67.523,26.291 -72.684,26.291 -72.684,31.452 -75.264,31.452 
	-75.264,23.71 -67.523,23.71 -67.523,18.549 -52.041,18.549 -52.041,23.71 -49.459,23.71 -49.459,18.549 -33.977,18.549 
	-33.977,34.032 -49.459,34.032 "/>
<rect x="-46.879" y="21.13" fill="#FFFFFF" width="5.161" height="10.322"/>
<rect x="-64.942" y="21.13" fill="#FFFFFF" width="5.16" height="10.322"/>
<polygon fill="none" stroke="#000000" stroke-linecap="round" stroke-linejoin="round" points="-80.425,44.354 -80.425,8.227 
	-72.684,8.227 -67.523,8.227 -64.942,8.227 -59.782,8.227 -57.202,8.227 -57.202,5.646 -52.041,5.646 -21.075,5.646 -21.075,44.354 
	"/>
<polygon stroke="#000000" stroke-width="0.05" stroke-linecap="round" stroke-linejoin="round" points="-51.467,63.853 
	-54.009,63.853 -54.009,71.479 -69.261,71.479 -69.261,63.853 -74.345,63.853 -74.345,68.937 -76.888,68.937 -76.888,61.311 
	-69.261,61.311 -69.261,56.227 -54.009,56.227 -54.009,61.311 -51.467,61.311 -51.467,56.227 -36.214,56.227 -36.214,71.479 
	-51.467,71.479 "/>
<rect x="-43.84" y="58.769" fill="none" stroke="#000000" stroke-width="0.05" stroke-linecap="round" stroke-linejoin="round" width="5.084" height="10.168"/>
<rect x="-48.925" y="58.769" fill="#FFFFFF" stroke="#000000" stroke-width="0.05" stroke-linecap="round" stroke-linejoin="round" width="5.084" height="10.168"/>
<rect x="-61.635" y="58.769" fill="none" stroke="#000000" stroke-width="0.05" stroke-linecap="round" stroke-linejoin="round" width="5.084" height="10.168"/>
<rect x="-66.719" y="58.769" fill="#FFFFFF" stroke="#000000" stroke-width="0.05" stroke-linecap="round" stroke-linejoin="round" width="5.084" height="10.168"/>
<rect x="-41.718" y="21.13" stroke="#000000" stroke-width="0.005" stroke-linecap="round" stroke-linejoin="round" width="5.161" height="10.322"/>
<rect x="-59.782" y="21.13" stroke="#000000" stroke-width="0.005" stroke-linecap="round" stroke-linejoin="round" width="5.161" height="10.322"/>
<polygon stroke="#000000" stroke-width="0.05" stroke-linecap="round" stroke-linejoin="round" points="27.688,29.421 
	25.146,29.421 25.146,37.047 9.894,37.047 9.894,29.421 4.81,29.421 4.81,34.505 2.267,34.505 2.267,26.879 9.894,26.879 
	9.894,21.795 25.146,21.795 25.146,26.879 27.688,26.879 27.688,21.795 42.94,21.795 42.94,37.047 27.688,37.047 "/>
<rect x="35.314" y="24.337" fill="none" stroke="#000000" stroke-width="0.05" stroke-linecap="round" stroke-linejoin="round" width="5.084" height="10.168"/>
<rect x="30.23" y="24.337" fill="#FFFFFF" stroke="#000000" stroke-width="0.05" stroke-linecap="round" stroke-linejoin="round" width="5.084" height="10.168"/>
<rect x="17.52" y="24.337" fill="none" stroke="#000000" stroke-width="0.05" stroke-linecap="round" stroke-linejoin="round" width="5.084" height="10.168"/>
<rect x="12.436" y="24.337" fill="#FFFFFF" stroke="#000000" stroke-width="0.05" stroke-linecap="round" stroke-linejoin="round" width="5.084" height="10.168"/>
<polygon fill="none" stroke="#000000" stroke-linecap="round" stroke-linejoin="round" points="14.978,17.252 35.314,17.252 
	35.314,9.626 32.772,9.626 32.772,7.084 30.23,7.084 17.52,7.084 17.52,9.626 14.978,9.626 14.978,14.71 "/>
<rect x="22.604" y="40.131" stroke="#000000" stroke-width="0.25" stroke-linecap="round" stroke-linejoin="round" width="5.084" height="5.084"/>
<polygon fill="none" stroke="#000000" stroke-width="1.5" stroke-linecap="round" stroke-linejoin="round" points="4.81,47.757 
	4.81,17.252 9.894,17.252 9.894,7.084 12.436,7.084 12.436,4.542 14.978,4.542 14.978,2 35.314,2 35.314,4.542 37.856,4.542 
	37.856,7.084 40.398,7.084 40.398,17.252 45.483,17.252 45.483,47.757 "/>
<rect x="165.605" y="23.617" fill="#8C8C8C" stroke="#8C8C8C" stroke-width="0.05" stroke-linecap="round" stroke-linejoin="round" width="5.084" height="7.056"/>
</svg>
