<?xml version="1.0" encoding="utf-8"?>
<!-- Generator: Adobe Illustrator 16.0.0, SVG Export Plug-In . SVG Version: 6.00 Build 0)  -->
<!DOCTYPE svg PUBLIC "-//W3C//DTD SVG 1.1//EN" "http://www.w3.org/Graphics/SVG/1.1/DTD/svg11.dtd">
<svg version="1.1" id="Default" xmlns="http://www.w3.org/2000/svg" xmlns:xlink="http://www.w3.org/1999/xlink" x="0px" y="0px"
	 width="44px" height="61.417px" viewBox="0 0 44 61.417" enable-background="new 0 0 44 61.417" xml:space="preserve">
<polygon fill="#A8A8A8" stroke="#000000" stroke-width="2" stroke-linecap="round" stroke-linejoin="round" points="-84.581,29.228 
	-79.497,29.228 -79.497,59.732 -120.17,59.732 -120.17,29.228 "/>
<rect x="-74.233" y="32.704" fill="#212121" stroke="#000000" stroke-linecap="round" stroke-linejoin="round" width="58.468" height="27.029"/>
<polygon fill="#383838" points="-98.292,41.938 -100.833,41.938 -100.833,49.564 -116.086,49.564 -116.086,41.938 -116.086,39.396 
	-116.086,34.312 -100.833,34.312 -100.833,39.396 -98.292,39.396 -98.292,34.312 -83.039,34.312 -83.039,49.564 -98.292,49.564 "/>
<polygon fill="none" stroke="#000000" stroke-width="2" stroke-linecap="round" stroke-linejoin="round" points="-74.233,60.667 
	-74.233,25.077 -66.607,25.077 -61.523,25.077 -58.981,25.077 -53.896,25.077 -51.354,25.077 -48.813,22.535 -46.271,22.535 
	-15.766,22.535 -15.766,60.667 "/>
<polygon points="-43.729,42.872 -46.271,42.872 -46.271,50.498 -61.523,50.498 -61.523,42.872 -61.523,40.33 -61.523,35.246 
	-46.271,35.246 -46.271,40.33 -43.729,40.33 -43.729,35.246 -28.476,35.246 -28.476,50.498 -43.729,50.498 "/>
<rect x="-51.354" y="53.04" fill="#B7B7B7" width="12.71" height="2.542"/>
<rect x="-31.018" y="25.077" fill="none" stroke="#000000" stroke-linecap="round" stroke-linejoin="round" width="10.168" height="5.084"/>
<rect x="-41.186" y="25.077" fill="#545454" stroke="#000000" stroke-linecap="round" stroke-linejoin="round" width="7.626" height="5.084"/>
<rect x="-36.102" y="37.788" fill="#212121" width="5.084" height="10.168"/>
<rect x="-41.186" y="37.788" fill="#FFFFFF" width="5.084" height="10.168"/>
<rect x="-53.896" y="37.788" fill="#212121" width="5.084" height="10.168"/>
<rect x="-58.981" y="37.788" fill="#FFFFFF" width="5.084" height="10.168"/>
<polygon fill="none" stroke="#777777" stroke-width="2" stroke-linecap="round" stroke-linejoin="round" points="6.748,29.228 
	37.252,29.228 42.336,29.228 42.336,59.732 1.664,59.732 1.664,29.228 "/>
<polygon fill="none" stroke="#777777" stroke-width="2" stroke-linecap="round" stroke-linejoin="round" points="14.11,16.166 
	9.482,14.063 13.689,4.805 17.056,3.543 20.422,2.281 38.936,10.696 40.198,14.063 41.46,17.428 37.252,26.685 32.624,24.582 
	35.78,17.639 35.78,17.639 34.518,14.273 32.203,13.221 20.632,7.961 20.632,7.961 17.266,9.224 15.162,13.852 "/>
<polygon fill="#4F4F4F" stroke="#000000" stroke-width="2" stroke-linecap="round" stroke-linejoin="round" points="
	-110.002,29.228 -115.086,29.228 -115.086,19.059 -112.544,16.517 -110.002,13.975 -89.666,13.975 -87.123,16.517 -84.581,19.059 
	-84.581,29.228 -89.666,29.228 -89.666,21.601 -89.666,21.601 -92.208,19.059 -94.75,19.059 -107.46,19.059 -107.46,19.059 
	-110.002,21.601 -110.002,26.685 "/>
<rect x="-113.544" y="36.854" fill="#FFFFFF" width="5.084" height="10.168"/>
<rect x="-108.46" y="36.854" fill="#212121" width="5.084" height="10.168"/>
<rect x="-95.75" y="36.854" fill="#FFFFFF" width="5.084" height="10.168"/>
<rect x="-90.666" y="36.854" fill="#212121" width="5.084" height="10.168"/>
</svg>
