<?xml version="1.0" encoding="utf-8"?>
<!-- Generator: Adobe Illustrator 16.0.0, SVG Export Plug-In . SVG Version: 6.00 Build 0)  -->
<!DOCTYPE svg PUBLIC "-//W3C//DTD SVG 1.1//EN" "http://www.w3.org/Graphics/SVG/1.1/DTD/svg11.dtd">
<svg version="1.1" id="Default" xmlns="http://www.w3.org/2000/svg" xmlns:xlink="http://www.w3.org/1999/xlink" x="0px" y="0px"
	 width="44px" height="61.083px" viewBox="0 0 44 61.083" enable-background="new 0 0 44 61.083" xml:space="preserve">
<polygon fill="#A8A8A8" stroke="#000000" stroke-width="2" stroke-linecap="round" stroke-linejoin="round" points="82.251,28.895 
	87.335,28.895 87.335,59.399 46.662,59.399 46.662,28.895 "/>
<rect x="-74.233" y="32.371" fill="#212121" stroke="#000000" stroke-linecap="round" stroke-linejoin="round" width="58.468" height="27.029"/>
<polygon fill="#383838" points="69.541,41.605 66.999,41.605 66.999,49.231 51.747,49.231 51.747,41.605 51.747,39.063 
	51.747,33.979 66.999,33.979 66.999,39.063 69.541,39.063 69.541,33.979 84.793,33.979 84.793,49.231 69.541,49.231 "/>
<polygon fill="none" stroke="#000000" stroke-width="2" stroke-linecap="round" stroke-linejoin="round" points="-74.233,60.333 
	-74.233,24.744 -66.607,24.744 -61.523,24.744 -58.981,24.744 -53.896,24.744 -51.354,24.744 -48.813,22.202 -46.271,22.202 
	-15.766,22.202 -15.766,60.333 "/>
<polygon fill="#FF0000" points="-43.729,42.539 -46.271,42.539 -46.271,50.165 -61.523,50.165 -61.523,42.539 -61.523,39.997 
	-61.523,34.913 -46.271,34.913 -46.271,39.997 -43.729,39.997 -43.729,34.913 -28.476,34.913 -28.476,50.165 -43.729,50.165 "/>
<rect x="-51.354" y="52.707" fill="#B7B7B7" width="12.71" height="2.542"/>
<rect x="-31.018" y="24.744" fill="none" stroke="#000000" stroke-linecap="round" stroke-linejoin="round" width="10.168" height="5.084"/>
<rect x="-41.186" y="24.744" fill="#545454" stroke="#000000" stroke-linecap="round" stroke-linejoin="round" width="7.626" height="5.084"/>
<rect x="-36.102" y="37.455" fill="#212121" width="5.084" height="10.168"/>
<rect x="-41.186" y="37.455" fill="#FFFFFF" width="5.084" height="10.168"/>
<rect x="-53.896" y="37.455" fill="#212121" width="5.084" height="10.168"/>
<rect x="-58.981" y="37.455" fill="#FFFFFF" width="5.084" height="10.168"/>
<polygon fill="none" stroke="#515151" stroke-width="2" stroke-linecap="round" stroke-linejoin="round" points="6.748,28.895 
	37.252,28.895 42.336,28.895 42.336,59.399 1.664,59.399 1.664,28.895 "/>
<polygon fill="none" stroke="#515151" stroke-width="2" stroke-linecap="round" stroke-linejoin="round" points="14.11,15.833 
	9.482,13.729 13.689,4.472 17.056,3.21 20.422,1.948 38.936,10.363 40.198,13.729 41.46,17.095 37.252,26.352 32.624,24.249 
	35.78,17.306 35.78,17.306 34.518,13.94 32.203,12.888 20.632,7.628 20.632,7.628 17.266,8.891 15.162,13.519 "/>
<polygon fill="#4F4F4F" stroke="#000000" stroke-width="2" stroke-linecap="round" stroke-linejoin="round" points="56.831,28.895 
	51.747,28.895 51.747,18.726 54.289,16.184 56.831,13.642 77.167,13.642 79.709,16.184 82.251,18.726 82.251,28.895 77.167,28.895 
	77.167,21.268 77.167,21.268 74.625,18.726 72.083,18.726 59.373,18.726 59.373,18.726 56.831,21.268 56.831,26.352 "/>
<polygon fill="#878787" points="24.542,41.605 22,41.605 22,49.231 6.748,49.231 6.748,41.605 6.748,39.063 6.748,33.979 22,33.979 
	22,39.063 24.542,39.063 24.542,33.979 39.794,33.979 39.794,49.231 24.542,49.231 "/>
<rect x="9.29" y="36.521" fill="#212121" width="5.084" height="10.168"/>
<rect x="14.374" y="36.521" fill="#FFFFFF" width="5.084" height="10.168"/>
<rect x="27.084" y="36.521" fill="#212121" width="5.084" height="10.168"/>
<rect x="32.168" y="36.521" fill="#FFFFFF" width="5.084" height="10.168"/>
<rect x="19.458" y="51.773" fill="#212121" width="5.084" height="5.084"/>
<rect x="66.999" y="51.773" fill="#212121" width="2.542" height="2.542"/>
<rect x="54.289" y="36.521" fill="#FFFFFF" width="5.084" height="10.168"/>
<rect x="59.373" y="36.521" fill="#212121" width="5.084" height="10.168"/>
<rect x="72.083" y="36.521" fill="#FFFFFF" width="5.084" height="10.168"/>
<rect x="77.167" y="36.521" fill="#212121" width="5.084" height="10.168"/>
</svg>
