<?xml version="1.0" encoding="utf-8"?>
<!-- Generator: Adobe Illustrator 16.0.0, SVG Export Plug-In . SVG Version: 6.00 Build 0)  -->
<!DOCTYPE svg PUBLIC "-//W3C//DTD SVG 1.1//EN" "http://www.w3.org/Graphics/SVG/1.1/DTD/svg11.dtd">
<svg version="1.1" id="Default" xmlns="http://www.w3.org/2000/svg" xmlns:xlink="http://www.w3.org/1999/xlink" x="0px" y="0px"
	 width="50px" height="60px" viewBox="0 0 50 60" enable-background="new 0 0 50 60" xml:space="preserve">
<rect x="-80.425" y="20.969" width="59.351" height="25.805"/>
<polygon fill="#8C8C8C" stroke="#8C8C8C" stroke-width="0.05" stroke-linecap="round" stroke-linejoin="round" points="
	28.668,37.421 26.126,37.421 26.126,45.047 10.874,45.047 10.874,37.421 5.79,37.421 5.79,42.505 3.247,42.505 3.247,34.879 
	10.874,34.879 10.874,29.795 26.126,29.795 26.126,34.879 28.668,34.879 28.668,29.795 43.92,29.795 43.92,45.047 28.668,45.047 "/>
<rect x="31.21" y="32.337" fill="#FFFFFF" stroke="#8C8C8C" stroke-width="0.05" stroke-linecap="round" stroke-linejoin="round" width="10.168" height="10.168"/>
<rect x="13.416" y="32.337" fill="#FFFFFF" stroke="#8C8C8C" stroke-width="0.05" stroke-linecap="round" stroke-linejoin="round" width="10.168" height="10.168"/>
<rect x="13.416" y="35.449" fill="#8C8C8C" stroke="#8C8C8C" stroke-width="0.05" stroke-linecap="round" stroke-linejoin="round" width="5.084" height="7.056"/>
<line fill="none" stroke="#8C8C8C" stroke-linecap="round" stroke-linejoin="round" x1="10.874" y1="25.252" x2="41.378" y2="25.252"/>
<rect x="26.126" y="49.131" fill="#8C8C8C" width="2.542" height="2.542"/>
<polyline fill="none" stroke="#8C8C8C" stroke-linecap="round" stroke-linejoin="round" points="41.378,25.252 46.463,25.252 
	46.463,55.757 5.79,55.757 5.79,25.252 10.874,25.252 "/>
<polygon fill="none" stroke="#8C8C8C" stroke-width="1.5" stroke-linecap="round" stroke-linejoin="round" points="41.378,18.252 
	41.378,8.084 38.836,8.084 38.836,5.542 36.294,5.542 36.294,3 15.958,3 15.958,5.542 13.416,5.542 13.416,8.084 10.874,8.084 
	10.874,18.252 15.958,18.252 15.958,15.71 15.958,10.626 18.5,10.626 18.5,8.084 31.21,8.084 33.752,8.084 33.752,10.626 
	36.294,10.626 36.294,18.252 "/>
<rect x="-36.558" y="13.227" fill="none" stroke="#000000" stroke-linecap="round" stroke-linejoin="round" width="10.322" height="5.161"/>
<rect x="-46.879" y="13.227" stroke="#000000" stroke-width="0.25" stroke-linecap="round" stroke-linejoin="round" width="7.741" height="5.161"/>
<rect x="-59.782" y="15.808" fill="none" stroke="#000000" stroke-linecap="round" stroke-linejoin="round" width="5.161" height="2.58"/>
<rect x="-57.202" y="41.612" fill="#FFFFFF" stroke="#000000" stroke-width="0.25" stroke-linecap="round" stroke-linejoin="round" width="12.903" height="2.581"/>
<polygon fill="#FF0000" stroke="#000000" stroke-width="0.05" stroke-linecap="round" stroke-linejoin="round" points="
	-49.459,31.291 -52.041,31.291 -52.041,39.032 -67.523,39.032 -67.523,31.291 -72.684,31.291 -72.684,36.452 -75.264,36.452 
	-75.264,28.71 -67.523,28.71 -67.523,23.549 -52.041,23.549 -52.041,28.71 -49.459,28.71 -49.459,23.549 -33.977,23.549 
	-33.977,39.032 -49.459,39.032 "/>
<rect x="-46.879" y="26.13" fill="#FFFFFF" width="5.161" height="10.322"/>
<rect x="-64.942" y="26.13" fill="#FFFFFF" width="5.16" height="10.322"/>
<polygon fill="none" stroke="#000000" stroke-linecap="round" stroke-linejoin="round" points="-80.425,49.354 -80.425,13.227 
	-72.684,13.227 -67.523,13.227 -64.942,13.227 -59.782,13.227 -57.202,13.227 -57.202,10.646 -52.041,10.646 -21.075,10.646 
	-21.075,49.354 "/>
<polygon stroke="#000000" stroke-width="0.05" stroke-linecap="round" stroke-linejoin="round" points="-51.467,68.853 
	-54.009,68.853 -54.009,76.479 -69.261,76.479 -69.261,68.853 -74.345,68.853 -74.345,73.937 -76.888,73.937 -76.888,66.311 
	-69.261,66.311 -69.261,61.227 -54.009,61.227 -54.009,66.311 -51.467,66.311 -51.467,61.227 -36.214,61.227 -36.214,76.479 
	-51.467,76.479 "/>
<rect x="-43.84" y="63.769" fill="none" stroke="#000000" stroke-width="0.05" stroke-linecap="round" stroke-linejoin="round" width="5.084" height="10.168"/>
<rect x="-48.925" y="63.769" fill="#FFFFFF" stroke="#000000" stroke-width="0.05" stroke-linecap="round" stroke-linejoin="round" width="5.084" height="10.168"/>
<rect x="-61.635" y="63.769" fill="none" stroke="#000000" stroke-width="0.05" stroke-linecap="round" stroke-linejoin="round" width="5.084" height="10.168"/>
<rect x="-66.719" y="63.769" fill="#FFFFFF" stroke="#000000" stroke-width="0.05" stroke-linecap="round" stroke-linejoin="round" width="5.084" height="10.168"/>
<rect x="-41.718" y="26.13" stroke="#000000" stroke-width="0.005" stroke-linecap="round" stroke-linejoin="round" width="5.161" height="10.322"/>
<rect x="-59.782" y="26.13" stroke="#000000" stroke-width="0.005" stroke-linecap="round" stroke-linejoin="round" width="5.161" height="10.322"/>
<polygon stroke="#000000" stroke-width="0.05" stroke-linecap="round" stroke-linejoin="round" points="81.021,33.421 
	78.479,33.421 78.479,41.047 63.227,41.047 63.227,33.421 58.143,33.421 58.143,38.505 55.601,38.505 55.601,30.879 63.227,30.879 
	63.227,25.795 78.479,25.795 78.479,30.879 81.021,30.879 81.021,25.795 96.274,25.795 96.274,41.047 81.021,41.047 "/>
<rect x="88.648" y="28.337" fill="none" stroke="#000000" stroke-width="0.05" stroke-linecap="round" stroke-linejoin="round" width="5.084" height="10.168"/>
<rect x="83.563" y="28.337" fill="#FFFFFF" stroke="#000000" stroke-width="0.05" stroke-linecap="round" stroke-linejoin="round" width="5.084" height="10.168"/>
<rect x="70.854" y="28.337" fill="none" stroke="#000000" stroke-width="0.05" stroke-linecap="round" stroke-linejoin="round" width="5.084" height="10.168"/>
<rect x="65.769" y="28.337" fill="#FFFFFF" stroke="#000000" stroke-width="0.05" stroke-linecap="round" stroke-linejoin="round" width="5.084" height="10.168"/>
<polygon fill="none" stroke="#000000" stroke-linecap="round" stroke-linejoin="round" points="68.311,21.252 88.648,21.252 
	88.648,13.626 86.106,13.626 86.106,11.084 83.563,11.084 70.854,11.084 70.854,13.626 68.311,13.626 68.311,18.71 "/>
<rect x="75.938" y="44.131" stroke="#000000" stroke-width="0.25" stroke-linecap="round" stroke-linejoin="round" width="5.084" height="5.084"/>
<polygon fill="none" stroke="#000000" stroke-width="1.5" stroke-linecap="round" stroke-linejoin="round" points="58.143,51.757 
	58.143,21.252 63.227,21.252 63.227,11.084 65.769,11.084 65.769,8.542 68.311,8.542 68.311,6 88.648,6 88.648,8.542 91.19,8.542 
	91.19,11.084 93.732,11.084 93.732,21.252 98.816,21.252 98.816,51.757 "/>
<rect x="31.21" y="35.449" fill="#8C8C8C" stroke="#8C8C8C" stroke-width="0.05" stroke-linecap="round" stroke-linejoin="round" width="5.084" height="7.056"/>
</svg>
