{
    "asset" : {
        "generator" : "Khronos glTF Blender I/O v1.5.17",
        "version" : "2.0"
    },
    "scene" : 0,
    "scenes" : [
        {
            "name" : "Scene",
            "nodes" : [
                0,
                1,
                2,
                3,
                4,
                5,
                6
            ]
        }
    ],
    "nodes" : [
        {
            "name" : "Light",
            "rotation" : [
                0.16907575726509094,
                0.7558803558349609,
                -0.27217137813568115,
                0.570947527885437
            ],
            "translation" : [
                4.076245307922363,
                5.903861999511719,
                -1.0054539442062378
            ]
        },
        {
            "name" : "Camera",
            "rotation" : [
                0.483536034822464,
                0.33687159419059753,
                -0.20870360732078552,
                0.7804827094078064
            ],
            "translation" : [
                7.358891487121582,
                4.958309173583984,
                6.925790786743164
            ]
        },
        {
            "mesh" : 0,
            "name" : "Body-Pride",
            "rotation" : [
                0.7071068286895752,
                0,
                0,
                0.7071067094802856
            ],
            "scale" : [
                0.009999999776482582,
                0.009999999776482582,
                0.009999999776482582
            ],
            "translation" : [
                -0.07000000029802322,
                0.09999999403953552,
                -0.03999999910593033
            ]
        },
        {
            "mesh" : 1,
            "name" : "Shoes-White1",
            "rotation" : [
                0.7071068286895752,
                0,
                0,
                0.7071067094802856
            ],
            "scale" : [
                0.009999999776482582,
                0.009999999776482582,
                0.009999999776482582
            ],
            "translation" : [
                -0.03999999910593033,
                0,
                -0.019999999552965164
            ]
        },
        {
            "mesh" : 2,
            "name" : "Head-Cloud",
            "rotation" : [
                0.7071068286895752,
                0,
                0,
                0.7071067094802856
            ],
            "scale" : [
                0.009999999776482582,
                0.009999999776482582,
                0.009999999776482582
            ],
            "translation" : [
                -0.11999999731779099,
                0.07999999821186066,
                -0.07000000029802322
            ]
        },
        {
            "mesh" : 3,
            "name" : "Pants-LightGrey1",
            "rotation" : [
                0.7071068286895752,
                0,
                0,
                0.7071067094802856
            ],
            "scale" : [
                0.009999999776482582,
                0.009999999776482582,
                0.009999999776482582
            ],
            "translation" : [
                -0.03999999910593033,
                0.009999999776482582,
                -0.019999999552965164
            ]
        },
        {
            "mesh" : 4,
            "name" : "Glasses4",
            "rotation" : [
                0.7071068286895752,
                0,
                0,
                0.7071067094802856
            ],
            "scale" : [
                0.009999999776482582,
                0.009999999776482582,
                0.009999999776482582
            ],
            "translation" : [
                -0.08999999612569809,
                0.25,
                0.05999999865889549
            ]
        }
    ],
    "materials" : [
        {
            "doubleSided" : true,
            "name" : "Cloud_material",
            "pbrMetallicRoughness" : {
                "baseColorTexture" : {
                    "index" : 0
                },
                "metallicFactor" : 0,
                "roughnessFactor" : 0.5527864098548889
            }
        }
    ],
    "meshes" : [
        {
            "name" : "Body-Pride",
            "primitives" : [
                {
                    "attributes" : {
                        "POSITION" : 0,
                        "NORMAL" : 1,
                        "TEXCOORD_0" : 2
                    },
                    "indices" : 3,
                    "material" : 0
                }
            ]
        },
        {
            "name" : "Shoes-White1",
            "primitives" : [
                {
                    "attributes" : {
                        "POSITION" : 4,
                        "NORMAL" : 5,
                        "TEXCOORD_0" : 6
                    },
                    "indices" : 7,
                    "material" : 0
                }
            ]
        },
        {
            "name" : "Head-Cloud",
            "primitives" : [
                {
                    "attributes" : {
                        "POSITION" : 8,
                        "NORMAL" : 9,
                        "TEXCOORD_0" : 10
                    },
                    "indices" : 11,
                    "material" : 0
                }
            ]
        },
        {
            "name" : "Pants-LightGrey1",
            "primitives" : [
                {
                    "attributes" : {
                        "POSITION" : 12,
                        "NORMAL" : 13,
                        "TEXCOORD_0" : 14
                    },
                    "indices" : 15,
                    "material" : 0
                }
            ]
        },
        {
            "name" : "Glasses4",
            "primitives" : [
                {
                    "attributes" : {
                        "POSITION" : 16,
                        "NORMAL" : 17,
                        "TEXCOORD_0" : 18
                    },
                    "indices" : 19,
                    "material" : 0
                }
            ]
        }
    ],
    "textures" : [
        {
            "sampler" : 0,
            "source" : 0
        }
    ],
    "images" : [
        {
            "bufferView" : 4,
            "mimeType" : "image/png",
            "name" : "Cloud"
        }
    ],
    "accessors" : [
        {
            "bufferView" : 0,
            "componentType" : 5126,
            "count" : 2432,
            "max" : [
                14,
                6,
                0
            ],
            "min" : [
                0,
                0,
                -11
            ],
            "type" : "VEC3"
        },
        {
            "bufferView" : 1,
            "componentType" : 5126,
            "count" : 2432,
            "type" : "VEC3"
        },
        {
            "bufferView" : 2,
            "componentType" : 5126,
            "count" : 2432,
            "type" : "VEC2"
        },
        {
            "bufferView" : 3,
            "componentType" : 5123,
            "count" : 3648,
            "type" : "SCALAR"
        },
        {
            "bufferView" : 5,
            "componentType" : 5126,
            "count" : 176,
            "max" : [
                8,
                3,
                0
            ],
            "min" : [
                0,
                0,
                -1
            ],
            "type" : "VEC3"
        },
        {
            "bufferView" : 6,
            "componentType" : 5126,
            "count" : 176,
            "type" : "VEC3"
        },
        {
            "bufferView" : 7,
            "componentType" : 5126,
            "count" : 176,
            "type" : "VEC2"
        },
        {
            "bufferView" : 8,
            "componentType" : 5123,
            "count" : 264,
            "type" : "SCALAR"
        },
        {
            "bufferView" : 9,
            "componentType" : 5126,
            "count" : 6184,
            "max" : [
                24,
                13,
                0
            ],
            "min" : [
                0,
                0,
                -30
            ],
            "type" : "VEC3"
        },
        {
            "bufferView" : 10,
            "componentType" : 5126,
            "count" : 6184,
            "type" : "VEC3"
        },
        {
            "bufferView" : 11,
            "componentType" : 5126,
            "count" : 6184,
            "type" : "VEC2"
        },
        {
            "bufferView" : 12,
            "componentType" : 5123,
            "count" : 9276,
            "type" : "SCALAR"
        },
        {
            "bufferView" : 13,
            "componentType" : 5126,
            "count" : 736,
            "max" : [
                8,
                2,
                0
            ],
            "min" : [
                0,
                0,
                -9
            ],
            "type" : "VEC3"
        },
        {
            "bufferView" : 14,
            "componentType" : 5126,
            "count" : 736,
            "type" : "VEC3"
        },
        {
            "bufferView" : 15,
            "componentType" : 5126,
            "count" : 736,
            "type" : "VEC2"
        },
        {
            "bufferView" : 16,
            "componentType" : 5123,
            "count" : 1104,
            "type" : "SCALAR"
        },
        {
            "bufferView" : 17,
            "componentType" : 5126,
            "count" : 856,
            "max" : [
                16,
                1,
                0
            ],
            "min" : [
                0,
                0,
                -6
            ],
            "type" : "VEC3"
        },
        {
            "bufferView" : 18,
            "componentType" : 5126,
            "count" : 856,
            "type" : "VEC3"
        },
        {
            "bufferView" : 19,
            "componentType" : 5126,
            "count" : 856,
            "type" : "VEC2"
        },
        {
            "bufferView" : 20,
            "componentType" : 5123,
            "count" : 1284,
            "type" : "SCALAR"
        }
    ],
    "bufferViews" : [
        {
            "buffer" : 0,
            "byteLength" : 29184,
            "byteOffset" : 0
        },
        {
            "buffer" : 0,
            "byteLength" : 29184,
            "byteOffset" : 29184
        },
        {
            "buffer" : 0,
            "byteLength" : 19456,
            "byteOffset" : 58368
        },
        {
            "buffer" : 0,
            "byteLength" : 7296,
            "byteOffset" : 77824
        },
        {
            "buffer" : 0,
            "byteLength" : 199,
            "byteOffset" : 85120
        },
        {
            "buffer" : 0,
            "byteLength" : 2112,
            "byteOffset" : 85320
        },
        {
            "buffer" : 0,
            "byteLength" : 2112,
            "byteOffset" : 87432
        },
        {
            "buffer" : 0,
            "byteLength" : 1408,
            "byteOffset" : 89544
        },
        {
            "buffer" : 0,
            "byteLength" : 528,
            "byteOffset" : 90952
        },
        {
            "buffer" : 0,
            "byteLength" : 74208,
            "byteOffset" : 91480
        },
        {
            "buffer" : 0,
            "byteLength" : 74208,
            "byteOffset" : 165688
        },
        {
            "buffer" : 0,
            "byteLength" : 49472,
            "byteOffset" : 239896
        },
        {
            "buffer" : 0,
            "byteLength" : 18552,
            "byteOffset" : 289368
        },
        {
            "buffer" : 0,
            "byteLength" : 8832,
            "byteOffset" : 307920
        },
        {
            "buffer" : 0,
            "byteLength" : 8832,
            "byteOffset" : 316752
        },
        {
            "buffer" : 0,
            "byteLength" : 5888,
            "byteOffset" : 325584
        },
        {
            "buffer" : 0,
            "byteLength" : 2208,
            "byteOffset" : 331472
        },
        {
            "buffer" : 0,
            "byteLength" : 10272,
            "byteOffset" : 333680
        },
        {
            "buffer" : 0,
            "byteLength" : 10272,
            "byteOffset" : 343952
        },
        {
            "buffer" : 0,
            "byteLength" : 6848,
            "byteOffset" : 354224
        },
        {
            "buffer" : 0,
            "byteLength" : 2568,
            "byteOffset" : 361072
        }
    ],
    "samplers" : [
        {
            "magFilter" : 9729,
            "minFilter" : 9987
        }
    ],
    "buffers" : [
        {
            "byteLength" : 363640,
            "uri" : "data:application/octet-stream;base64,"
        }
    ]
}
