{
    "asset" : {
        "generator" : "Khronos glTF Blender I/O v1.5.17",
        "version" : "2.0"
    },
    "scene" : 0,
    "scenes" : [
        {
            "name" : "Scene",
            "nodes" : [
                0,
                1,
                2,
                3,
                4,
                5,
                6
            ]
        }
    ],
    "nodes" : [
        {
            "name" : "Light",
            "rotation" : [
                0.16907575726509094,
                0.7558803558349609,
                -0.27217137813568115,
                0.570947527885437
            ],
            "translation" : [
                4.076245307922363,
                5.903861999511719,
                -1.0054539442062378
            ]
        },
        {
            "name" : "Camera",
            "rotation" : [
                0.483536034822464,
                0.33687159419059753,
                -0.20870360732078552,
                0.7804827094078064
            ],
            "translation" : [
                7.358891487121582,
                4.958309173583984,
                6.925790786743164
            ]
        },
        {
            "mesh" : 0,
            "name" : "Body-Hoodie",
            "rotation" : [
                0.7071068286895752,
                0,
                0,
                0.7071067094802856
            ],
            "scale" : [
                0.009999999776482582,
                0.009999999776482582,
                0.009999999776482582
            ],
            "translation" : [
                -0.07000000029802322,
                0.09999999403953552,
                -0.07000000029802322
            ]
        },
        {
            "mesh" : 1,
            "name" : "Shoes-Black1",
            "rotation" : [
                0.7071068286895752,
                0,
                0,
                0.7071067094802856
            ],
            "scale" : [
                0.009999999776482582,
                0.009999999776482582,
                0.009999999776482582
            ],
            "translation" : [
                -0.03999999910593033,
                0,
                -0.019999999552965164
            ]
        },
        {
            "mesh" : 2,
            "name" : "Head-Mixer",
            "rotation" : [
                0.7071068286895752,
                0,
                0,
                0.7071067094802856
            ],
            "scale" : [
                0.009999999776482582,
                0.009999999776482582,
                0.009999999776482582
            ],
            "translation" : [
                -0.09999999403953552,
                0.07999999821186066,
                -0.05999999865889549
            ]
        },
        {
            "mesh" : 3,
            "name" : "Pants-DarkGrey1",
            "rotation" : [
                0.7071068286895752,
                0,
                0,
                0.7071067094802856
            ],
            "scale" : [
                0.009999999776482582,
                0.009999999776482582,
                0.009999999776482582
            ],
            "translation" : [
                -0.03999999910593033,
                0.009999999776482582,
                -0.019999999552965164
            ]
        },
        {
            "mesh" : 4,
            "name" : "Glasses5",
            "rotation" : [
                0.7071068286895752,
                0,
                0,
                0.7071067094802856
            ],
            "scale" : [
                0.009999999776482582,
                0.009999999776482582,
                0.009999999776482582
            ],
            "translation" : [
                -0.07999999821186066,
                0.25,
                0.03999999910593033
            ]
        }
    ],
    "materials" : [
        {
            "doubleSided" : true,
            "name" : "Mixer_material",
            "pbrMetallicRoughness" : {
                "baseColorTexture" : {
                    "index" : 0
                },
                "metallicFactor" : 0,
                "roughnessFactor" : 0.5527864098548889
            }
        }
    ],
    "meshes" : [
        {
            "name" : "Body-Hoodie",
            "primitives" : [
                {
                    "attributes" : {
                        "POSITION" : 0,
                        "NORMAL" : 1,
                        "TEXCOORD_0" : 2
                    },
                    "indices" : 3,
                    "material" : 0
                }
            ]
        },
        {
            "name" : "Shoes-Black1",
            "primitives" : [
                {
                    "attributes" : {
                        "POSITION" : 4,
                        "NORMAL" : 5,
                        "TEXCOORD_0" : 6
                    },
                    "indices" : 7,
                    "material" : 0
                }
            ]
        },
        {
            "name" : "Head-Mixer",
            "primitives" : [
                {
                    "attributes" : {
                        "POSITION" : 8,
                        "NORMAL" : 9,
                        "TEXCOORD_0" : 10
                    },
                    "indices" : 11,
                    "material" : 0
                }
            ]
        },
        {
            "name" : "Pants-DarkGrey1",
            "primitives" : [
                {
                    "attributes" : {
                        "POSITION" : 12,
                        "NORMAL" : 13,
                        "TEXCOORD_0" : 14
                    },
                    "indices" : 15,
                    "material" : 0
                }
            ]
        },
        {
            "name" : "Glasses5",
            "primitives" : [
                {
                    "attributes" : {
                        "POSITION" : 16,
                        "NORMAL" : 17,
                        "TEXCOORD_0" : 18
                    },
                    "indices" : 19,
                    "material" : 0
                }
            ]
        }
    ],
    "textures" : [
        {
            "sampler" : 0,
            "source" : 0
        }
    ],
    "images" : [
        {
            "bufferView" : 4,
            "mimeType" : "image/png",
            "name" : "Mixer"
        }
    ],
    "accessors" : [
        {
            "bufferView" : 0,
            "componentType" : 5126,
            "count" : 2888,
            "max" : [
                14,
                10,
                0
            ],
            "min" : [
                0,
                0,
                -11
            ],
            "type" : "VEC3"
        },
        {
            "bufferView" : 1,
            "componentType" : 5126,
            "count" : 2888,
            "type" : "VEC3"
        },
        {
            "bufferView" : 2,
            "componentType" : 5126,
            "count" : 2888,
            "type" : "VEC2"
        },
        {
            "bufferView" : 3,
            "componentType" : 5123,
            "count" : 4332,
            "type" : "SCALAR"
        },
        {
            "bufferView" : 5,
            "componentType" : 5126,
            "count" : 176,
            "max" : [
                8,
                3,
                0
            ],
            "min" : [
                0,
                0,
                -1
            ],
            "type" : "VEC3"
        },
        {
            "bufferView" : 6,
            "componentType" : 5126,
            "count" : 176,
            "type" : "VEC3"
        },
        {
            "bufferView" : 7,
            "componentType" : 5126,
            "count" : 176,
            "type" : "VEC2"
        },
        {
            "bufferView" : 8,
            "componentType" : 5123,
            "count" : 264,
            "type" : "SCALAR"
        },
        {
            "bufferView" : 9,
            "componentType" : 5126,
            "count" : 6912,
            "max" : [
                20,
                10,
                0
            ],
            "min" : [
                0,
                0,
                -32
            ],
            "type" : "VEC3"
        },
        {
            "bufferView" : 10,
            "componentType" : 5126,
            "count" : 6912,
            "type" : "VEC3"
        },
        {
            "bufferView" : 11,
            "componentType" : 5126,
            "count" : 6912,
            "type" : "VEC2"
        },
        {
            "bufferView" : 12,
            "componentType" : 5123,
            "count" : 10368,
            "type" : "SCALAR"
        },
        {
            "bufferView" : 13,
            "componentType" : 5126,
            "count" : 736,
            "max" : [
                8,
                2,
                0
            ],
            "min" : [
                0,
                0,
                -9
            ],
            "type" : "VEC3"
        },
        {
            "bufferView" : 14,
            "componentType" : 5126,
            "count" : 736,
            "type" : "VEC3"
        },
        {
            "bufferView" : 15,
            "componentType" : 5126,
            "count" : 736,
            "type" : "VEC2"
        },
        {
            "bufferView" : 16,
            "componentType" : 5123,
            "count" : 1104,
            "type" : "SCALAR"
        },
        {
            "bufferView" : 17,
            "componentType" : 5126,
            "count" : 856,
            "max" : [
                16,
                1,
                0
            ],
            "min" : [
                0,
                0,
                -6
            ],
            "type" : "VEC3"
        },
        {
            "bufferView" : 18,
            "componentType" : 5126,
            "count" : 856,
            "type" : "VEC3"
        },
        {
            "bufferView" : 19,
            "componentType" : 5126,
            "count" : 856,
            "type" : "VEC2"
        },
        {
            "bufferView" : 20,
            "componentType" : 5123,
            "count" : 1284,
            "type" : "SCALAR"
        }
    ],
    "bufferViews" : [
        {
            "buffer" : 0,
            "byteLength" : 34656,
            "byteOffset" : 0
        },
        {
            "buffer" : 0,
            "byteLength" : 34656,
            "byteOffset" : 34656
        },
        {
            "buffer" : 0,
            "byteLength" : 23104,
            "byteOffset" : 69312
        },
        {
            "buffer" : 0,
            "byteLength" : 8664,
            "byteOffset" : 92416
        },
        {
            "buffer" : 0,
            "byteLength" : 217,
            "byteOffset" : 101080
        },
        {
            "buffer" : 0,
            "byteLength" : 2112,
            "byteOffset" : 101300
        },
        {
            "buffer" : 0,
            "byteLength" : 2112,
            "byteOffset" : 103412
        },
        {
            "buffer" : 0,
            "byteLength" : 1408,
            "byteOffset" : 105524
        },
        {
            "buffer" : 0,
            "byteLength" : 528,
            "byteOffset" : 106932
        },
        {
            "buffer" : 0,
            "byteLength" : 82944,
            "byteOffset" : 107460
        },
        {
            "buffer" : 0,
            "byteLength" : 82944,
            "byteOffset" : 190404
        },
        {
            "buffer" : 0,
            "byteLength" : 55296,
            "byteOffset" : 273348
        },
        {
            "buffer" : 0,
            "byteLength" : 20736,
            "byteOffset" : 328644
        },
        {
            "buffer" : 0,
            "byteLength" : 8832,
            "byteOffset" : 349380
        },
        {
            "buffer" : 0,
            "byteLength" : 8832,
            "byteOffset" : 358212
        },
        {
            "buffer" : 0,
            "byteLength" : 5888,
            "byteOffset" : 367044
        },
        {
            "buffer" : 0,
            "byteLength" : 2208,
            "byteOffset" : 372932
        },
        {
            "buffer" : 0,
            "byteLength" : 10272,
            "byteOffset" : 375140
        },
        {
            "buffer" : 0,
            "byteLength" : 10272,
            "byteOffset" : 385412
        },
        {
            "buffer" : 0,
            "byteLength" : 6848,
            "byteOffset" : 395684
        },
        {
            "buffer" : 0,
            "byteLength" : 2568,
            "byteOffset" : 402532
        }
    ],
    "samplers" : [
        {
            "magFilter" : 9729,
            "minFilter" : 9987
        }
    ],
    "buffers" : [
        {
            "byteLength" : 405100,
            "uri" : "data:application/octet-stream;base64,"
        }
    ]
}
