<?xml version="1.0" encoding="utf-8"?>
<!-- Generator: Adobe Illustrator 16.0.0, SVG Export Plug-In . SVG Version: 6.00 Build 0)  -->
<!DOCTYPE svg PUBLIC "-//W3C//DTD SVG 1.1//EN" "http://www.w3.org/Graphics/SVG/1.1/DTD/svg11.dtd">
<svg version="1.1" id="Layer_1" xmlns="http://www.w3.org/2000/svg" xmlns:xlink="http://www.w3.org/1999/xlink" x="0px" y="0px"
	 width="300px" height="300px" viewBox="0 0 300 300" enable-background="new 0 0 300 300" xml:space="preserve">
<polyline fill="none" stroke="#FFFFFF" stroke-width="16" stroke-miterlimit="10" points="87,188.86 87,172.86 87,140.86 87,124.86 
	"/>
<polyline fill="none" stroke="#FFFFFF" stroke-width="16" stroke-miterlimit="10" points="175,196.86 159,196.86 143,196.86 
	127,196.86 79,196.86 "/>
<line fill="none" stroke="#FFFFFF" stroke-width="16" stroke-miterlimit="10" x1="87" y1="124.86" x2="87" y2="108.86"/>
<line fill="none" stroke="#FFFFFF" stroke-width="16" stroke-miterlimit="10" x1="79" y1="116.86" x2="175" y2="116.86"/>
<line fill="none" stroke="#FFFFFF" stroke-width="16" stroke-miterlimit="10" x1="167" y1="124.86" x2="167" y2="188.86"/>
<line fill="none" stroke="#328EFD" stroke-width="17" stroke-miterlimit="10" x1="150.5" y1="124.86" x2="150.5" y2="188.86"/>
<line fill="none" stroke="#328EFD" stroke-width="17" stroke-miterlimit="10" x1="134.5" y1="124.86" x2="134.5" y2="188.86"/>
<polyline fill="none" stroke="#FFFFFF" stroke-width="16" stroke-miterlimit="10" points="199,188.86 199,172.86 199,140.86 
	199,124.86 "/>
<polyline fill="none" stroke="#FFFFFF" stroke-width="16" stroke-miterlimit="10" points="271,196.86 255,196.86 239,196.86 
	191,196.86 "/>
<line fill="none" stroke="#FFFFFF" stroke-width="16" stroke-miterlimit="10" x1="271" y1="196.86" x2="287" y2="196.86"/>
<line fill="none" stroke="#FFFFFF" stroke-width="16" stroke-miterlimit="10" x1="199" y1="124.86" x2="199" y2="108.86"/>
<line fill="none" stroke="#FFFFFF" stroke-width="16" stroke-miterlimit="10" x1="191" y1="116.86" x2="287" y2="116.86"/>
<line fill="none" stroke="#FFFFFF" stroke-width="16" stroke-miterlimit="10" x1="279" y1="124.86" x2="279" y2="188.86"/>
<line fill="none" stroke="#FD3333" stroke-width="17" stroke-miterlimit="10" x1="262.5" y1="124.86" x2="262.5" y2="188.86"/>
<line fill="none" stroke="#FD3333" stroke-width="17" stroke-miterlimit="10" x1="246.5" y1="124.86" x2="246.5" y2="188.86"/>
<line fill="none" stroke="#FFFFFF" stroke-width="16" stroke-miterlimit="10" x1="175" y1="148.86" x2="191" y2="148.86"/>
<line fill="none" stroke="#FFFFFF" stroke-width="16" stroke-miterlimit="10" x1="79" y1="148.86" x2="31" y2="148.86"/>
<line fill="none" stroke="#FFFFFF" stroke-width="16" stroke-miterlimit="10" x1="39" y1="156.86" x2="39" y2="188.86"/>
<line fill="none" stroke="#323232" stroke-width="16" stroke-miterlimit="10" x1="23" y1="172.86" x2="23" y2="124.86"/>
<line fill="none" stroke="#323232" stroke-width="16" stroke-miterlimit="10" x1="15" y1="132.86" x2="79" y2="132.86"/>
<line fill="none" stroke="#323232" stroke-width="16" stroke-miterlimit="10" x1="71" y1="140.86" x2="71" y2="92.86"/>
<line fill="none" stroke="#323232" stroke-width="16" stroke-miterlimit="10" x1="63" y1="100.86" x2="159" y2="100.86"/>
<line fill="none" stroke="#323232" stroke-width="16" stroke-miterlimit="10" x1="71" y1="156.86" x2="71" y2="188.86"/>
<line fill="none" stroke="#323232" stroke-width="16" stroke-miterlimit="10" x1="271" y1="100.86" x2="175" y2="100.86"/>
<line fill="none" stroke="#323232" stroke-width="16" stroke-miterlimit="10" x1="183" y1="108.86" x2="183" y2="140.86"/>
<line fill="none" stroke="#323232" stroke-width="16" stroke-miterlimit="10" x1="183" y1="156.86" x2="183" y2="188.86"/>
<line fill="none" stroke="#D8D8D8" stroke-width="18" stroke-miterlimit="10" x1="119" y1="124.86" x2="119" y2="188.86"/>
<line fill="none" stroke="#D8D8D8" stroke-width="18" stroke-miterlimit="10" x1="103" y1="124.86" x2="103" y2="188.86"/>
<line fill="none" stroke="#D8D8D8" stroke-width="18" stroke-miterlimit="10" x1="231" y1="124.86" x2="231" y2="188.86"/>
<line fill="none" stroke="#D8D8D8" stroke-width="18" stroke-miterlimit="10" x1="215" y1="124.86" x2="215" y2="188.86"/>
</svg>
