{
    "asset" : {
        "generator" : "Khronos glTF Blender I/O v0.9.36",
        "version" : "2.0"
    },
    "scene" : 0,
    "scenes" : [
        {
            "name" : "Scene",
            "nodes" : [
                0,
                1,
                2,
                3,
                4,
                5,
                6,
                7,
                8,
                9
            ]
        }
    ],
    "nodes" : [
        {
            "name" : "Light",
            "rotation" : [
                0.16907575726509094,
                0.7558803558349609,
                -0.27217137813568115,
                0.570947527885437
            ],
            "translation" : [
                4.076245307922363,
                5.903861999511719,
                -1.0054539442062378
            ]
        },
        {
            "name" : "Camera",
            "rotation" : [
                0.483536034822464,
                0.33687159419059753,
                -0.20870360732078552,
                0.7804827094078064
            ],
            "translation" : [
                7.358891487121582,
                4.958309173583984,
                6.925790786743164
            ]
        },
        {
            "name" : "Light.001",
            "rotation" : [
                0.5232754945755005,
                0.34203392267227173,
                -0.7269423604011536,
                0.284166157245636
            ],
            "translation" : [
                4.076245307922363,
                5.903862476348877,
                -1.0054532289505005
            ]
        },
        {
            "name" : "Camera.001",
            "rotation" : [
                0.8937963247299194,
                0.09062855690717697,
                -0.3857799172401428,
                0.20997287333011627
            ],
            "translation" : [
                7.358891487121582,
                4.958308696746826,
                6.925792217254639
            ]
        },
        {
            "mesh" : 0,
            "name" : "Oren_184",
            "rotation" : [
                1,
                0,
                0,
                -1.3435885648505064e-07
            ],
            "scale" : [
                0.009999999776482582,
                0.009999999776482582,
                0.009999999776482582
            ],
            "translation" : [
                -0.07000000029802322,
                0.10000001639127731,
                -0.03999998793005943
            ]
        },
        {
            "mesh" : 1,
            "name" : "Oren_185",
            "rotation" : [
                1,
                0,
                0,
                -1.3435885648505064e-07
            ],
            "scale" : [
                0.009999999776482582,
                0.009999999776482582,
                0.009999999776482582
            ],
            "translation" : [
                -0.08999999612569809,
                0.2500000298023224,
                0.020000034943223
            ]
        },
        {
            "mesh" : 2,
            "name" : "Oren_186",
            "rotation" : [
                1,
                0,
                0,
                -1.3435885648505064e-07
            ],
            "scale" : [
                0.009999999776482582,
                0.009999999776482582,
                0.009999999776482582
            ],
            "translation" : [
                -0.10999999940395355,
                0.21000002324581146,
                -0.04999997466802597
            ]
        },
        {
            "mesh" : 3,
            "name" : "Oren_184_part",
            "rotation" : [
                1,
                0,
                0,
                -1.3435885648505064e-07
            ],
            "scale" : [
                0.009999999776482582,
                0.009999999776482582,
                0.009999999776482582
            ],
            "translation" : [
                -0.03999999910593033,
                0.01000000350177288,
                -0.019999999552965164
            ]
        },
        {
            "mesh" : 4,
            "name" : "Oren_184_part_part",
            "rotation" : [
                1,
                0,
                0,
                -1.3435885648505064e-07
            ],
            "scale" : [
                0.009999999776482582,
                0.009999999776482582,
                0.009999999776482582
            ],
            "translation" : [
                -0.03999999910593033,
                0,
                -0.020000001415610313
            ]
        },
        {
            "mesh" : 5,
            "name" : "Oren_184_part_1",
            "rotation" : [
                1,
                0,
                0,
                -1.3435885648505064e-07
            ],
            "scale" : [
                0.009999999776482582,
                0.009999999776482582,
                0.009999999776482582
            ],
            "translation" : [
                -0.07000000029802322,
                0.08000000566244125,
                -0.019999990239739418
            ]
        }
    ],
    "materials" : [
        {
            "doubleSided" : true,
            "name" : "CrabTestThreeJS_material",
            "pbrMetallicRoughness" : {
                "baseColorTexture" : {
                    "index" : 0,
                    "texCoord" : 0
                },
                "metallicFactor" : 0,
                "roughnessFactor" : 0.5527864098548889
            }
        }
    ],
    "meshes" : [
        {
            "name" : "Oren_184",
            "primitives" : [
                {
                    "attributes" : {
                        "POSITION" : 0,
                        "NORMAL" : 1,
                        "TEXCOORD_0" : 2
                    },
                    "indices" : 3,
                    "material" : 0
                }
            ]
        },
        {
            "name" : "Oren_185",
            "primitives" : [
                {
                    "attributes" : {
                        "POSITION" : 4,
                        "NORMAL" : 5,
                        "TEXCOORD_0" : 6
                    },
                    "indices" : 7,
                    "material" : 0
                }
            ]
        },
        {
            "name" : "Oren_186",
            "primitives" : [
                {
                    "attributes" : {
                        "POSITION" : 8,
                        "NORMAL" : 9,
                        "TEXCOORD_0" : 10
                    },
                    "indices" : 11,
                    "material" : 0
                }
            ]
        },
        {
            "name" : "Oren_184_part",
            "primitives" : [
                {
                    "attributes" : {
                        "POSITION" : 12,
                        "NORMAL" : 13,
                        "TEXCOORD_0" : 14
                    },
                    "indices" : 15,
                    "material" : 0
                }
            ]
        },
        {
            "name" : "Oren_184_part_part",
            "primitives" : [
                {
                    "attributes" : {
                        "POSITION" : 16,
                        "NORMAL" : 17,
                        "TEXCOORD_0" : 18
                    },
                    "indices" : 19,
                    "material" : 0
                }
            ]
        },
        {
            "name" : "Oren_184_part_1",
            "primitives" : [
                {
                    "attributes" : {
                        "POSITION" : 20,
                        "NORMAL" : 21,
                        "TEXCOORD_0" : 22
                    },
                    "indices" : 19,
                    "material" : 0
                }
            ]
        }
    ],
    "textures" : [
        {
            "source" : 0
        }
    ],
    "images" : [
        {
            "bufferView" : 4,
            "mimeType" : "image/png",
            "name" : "Image_0"
        }
    ],
    "accessors" : [
        {
            "bufferView" : 0,
            "componentType" : 5126,
            "count" : 2432,
            "max" : [
                14,
                0,
                0
            ],
            "min" : [
                0,
                -11,
                -6
            ],
            "type" : "VEC3"
        },
        {
            "bufferView" : 1,
            "componentType" : 5126,
            "count" : 2432,
            "type" : "VEC3"
        },
        {
            "bufferView" : 2,
            "componentType" : 5126,
            "count" : 2432,
            "type" : "VEC2"
        },
        {
            "bufferView" : 3,
            "componentType" : 5123,
            "count" : 3648,
            "type" : "SCALAR"
        },
        {
            "bufferView" : 5,
            "componentType" : 5126,
            "count" : 856,
            "max" : [
                16,
                0,
                0
            ],
            "min" : [
                0,
                -6,
                -1
            ],
            "type" : "VEC3"
        },
        {
            "bufferView" : 6,
            "componentType" : 5126,
            "count" : 856,
            "type" : "VEC3"
        },
        {
            "bufferView" : 7,
            "componentType" : 5126,
            "count" : 856,
            "type" : "VEC2"
        },
        {
            "bufferView" : 8,
            "componentType" : 5123,
            "count" : 1284,
            "type" : "SCALAR"
        },
        {
            "bufferView" : 9,
            "componentType" : 5126,
            "count" : 5464,
            "max" : [
                22,
                0,
                0
            ],
            "min" : [
                0,
                -19,
                -7
            ],
            "type" : "VEC3"
        },
        {
            "bufferView" : 10,
            "componentType" : 5126,
            "count" : 5464,
            "type" : "VEC3"
        },
        {
            "bufferView" : 11,
            "componentType" : 5126,
            "count" : 5464,
            "type" : "VEC2"
        },
        {
            "bufferView" : 12,
            "componentType" : 5123,
            "count" : 8196,
            "type" : "SCALAR"
        },
        {
            "bufferView" : 13,
            "componentType" : 5126,
            "count" : 736,
            "max" : [
                8,
                0,
                0
            ],
            "min" : [
                0,
                -9,
                -2
            ],
            "type" : "VEC3"
        },
        {
            "bufferView" : 14,
            "componentType" : 5126,
            "count" : 736,
            "type" : "VEC3"
        },
        {
            "bufferView" : 15,
            "componentType" : 5126,
            "count" : 736,
            "type" : "VEC2"
        },
        {
            "bufferView" : 16,
            "componentType" : 5123,
            "count" : 1104,
            "type" : "SCALAR"
        },
        {
            "bufferView" : 17,
            "componentType" : 5126,
            "count" : 176,
            "max" : [
                8,
                0,
                0
            ],
            "min" : [
                0,
                -1,
                -3
            ],
            "type" : "VEC3"
        },
        {
            "bufferView" : 18,
            "componentType" : 5126,
            "count" : 176,
            "type" : "VEC3"
        },
        {
            "bufferView" : 19,
            "componentType" : 5126,
            "count" : 176,
            "type" : "VEC2"
        },
        {
            "bufferView" : 20,
            "componentType" : 5123,
            "count" : 264,
            "type" : "SCALAR"
        },
        {
            "bufferView" : 21,
            "componentType" : 5126,
            "count" : 176,
            "max" : [
                14,
                0,
                0
            ],
            "min" : [
                0,
                -2,
                -2
            ],
            "type" : "VEC3"
        },
        {
            "bufferView" : 22,
            "componentType" : 5126,
            "count" : 176,
            "type" : "VEC3"
        },
        {
            "bufferView" : 23,
            "componentType" : 5126,
            "count" : 176,
            "type" : "VEC2"
        }
    ],
    "bufferViews" : [
        {
            "buffer" : 0,
            "byteLength" : 29184,
            "byteOffset" : 0
        },
        {
            "buffer" : 0,
            "byteLength" : 29184,
            "byteOffset" : 29184
        },
        {
            "buffer" : 0,
            "byteLength" : 19456,
            "byteOffset" : 58368
        },
        {
            "buffer" : 0,
            "byteLength" : 7296,
            "byteOffset" : 77824
        },
        {
            "buffer" : 0,
            "byteLength" : 160,
            "byteOffset" : 85120
        },
        {
            "buffer" : 0,
            "byteLength" : 10272,
            "byteOffset" : 85280
        },
        {
            "buffer" : 0,
            "byteLength" : 10272,
            "byteOffset" : 95552
        },
        {
            "buffer" : 0,
            "byteLength" : 6848,
            "byteOffset" : 105824
        },
        {
            "buffer" : 0,
            "byteLength" : 2568,
            "byteOffset" : 112672
        },
        {
            "buffer" : 0,
            "byteLength" : 65568,
            "byteOffset" : 115240
        },
        {
            "buffer" : 0,
            "byteLength" : 65568,
            "byteOffset" : 180808
        },
        {
            "buffer" : 0,
            "byteLength" : 43712,
            "byteOffset" : 246376
        },
        {
            "buffer" : 0,
            "byteLength" : 16392,
            "byteOffset" : 290088
        },
        {
            "buffer" : 0,
            "byteLength" : 8832,
            "byteOffset" : 306480
        },
        {
            "buffer" : 0,
            "byteLength" : 8832,
            "byteOffset" : 315312
        },
        {
            "buffer" : 0,
            "byteLength" : 5888,
            "byteOffset" : 324144
        },
        {
            "buffer" : 0,
            "byteLength" : 2208,
            "byteOffset" : 330032
        },
        {
            "buffer" : 0,
            "byteLength" : 2112,
            "byteOffset" : 332240
        },
        {
            "buffer" : 0,
            "byteLength" : 2112,
            "byteOffset" : 334352
        },
        {
            "buffer" : 0,
            "byteLength" : 1408,
            "byteOffset" : 336464
        },
        {
            "buffer" : 0,
            "byteLength" : 528,
            "byteOffset" : 337872
        },
        {
            "buffer" : 0,
            "byteLength" : 2112,
            "byteOffset" : 338400
        },
        {
            "buffer" : 0,
            "byteLength" : 2112,
            "byteOffset" : 340512
        },
        {
            "buffer" : 0,
            "byteLength" : 1408,
            "byteOffset" : 342624
        }
    ],
    "buffers" : [
        {
            "byteLength" : 344032,
            "uri" : "data:application/octet-stream;base64,"
        }
    ]
}
